<svg xmlns="http://www.w3.org/2000/svg" xmlns:xlink="http://www.w3.org/1999/xlink" width="72" height="54" viewBox="0 0 72 54">
    <defs>
        <filter id="a" width="182.1%" height="221.1%" x="-41.1%" y="-60.5%" filterUnits="objectBoundingBox">
            <feOffset dy="4" in="SourceAlpha" result="shadowOffsetOuter1"/>
            <feGaussianBlur in="shadowOffsetOuter1" result="shadowBlurOuter1" stdDeviation="4"/>
            <feColorMatrix in="shadowBlurOuter1" result="shadowMatrixOuter1" values="0 0 0 0 0 0 0 0 0 0 0 0 0 0 0 0 0 0 0.08 0"/>
            <feMerge>
                <feMergeNode in="shadowMatrixOuter1"/>
                <feMergeNode in="SourceGraphic"/>
            </feMerge>
        </filter>
        <linearGradient id="c" x1="96.885%" x2="6.693%" y1="31.693%" y2="69.524%">
            <stop offset="0%" stop-color="#FF8700"/>
            <stop offset="100%" stop-color="#D83367"/>
        </linearGradient>
        <path id="b" d="M3.423 1.797A170.223 170.223 0 0 1 28.025 0c8.184 0 16.37.599 24.554 1.796A4 4 0 0 1 56 5.754v25.79a4 4 0 0 1-3.42 3.957 169.25 169.25 0 0 1-24.555 1.795c-8.201 0-16.402-.599-24.603-1.796A4 4 0 0 1 0 31.542V5.755a4 4 0 0 1 3.423-3.958z"/>
    </defs>
    <g fill="none" fill-rule="evenodd" filter="url(#a)" transform="translate(8 4)">
        <mask id="d" fill="#fff">
            <use xlink:href="#b"/>
        </mask>
        <use fill="url(#c)" xlink:href="#b"/>
        <g fill="#FF8700" fill-opacity=".4" fill-rule="nonzero" mask="url(#d)">
            <path d="M12.616-2.048a1.399 1.399 0 0 0-1.183 1.382v30.548c0 .688.502 1.274 1.183 1.381a175.5 175.5 0 0 0 27.31 2.148c9.101 0 18.188-.715 27.26-2.147a1.399 1.399 0 0 0 1.18-1.381V-.667c0-.688-.5-1.274-1.181-1.381a174.883 174.883 0 0 0-27.26-2.148c-9.087 0-18.19.716-27.31 2.148zm-.073-.46a176.219 176.219 0 0 1 27.382-2.154c9.111 0 18.222.718 27.332 2.153a1.865 1.865 0 0 1 1.576 1.842v30.55c0 .917-.668 1.698-1.575 1.842a175.089 175.089 0 0 1-27.332 2.152c-9.128 0-18.255-.717-27.383-2.153a1.865 1.865 0 0 1-1.576-1.842V-.666c0-.918.669-1.7 1.576-1.842z"/>
            <path d="M10.283.283A1.399 1.399 0 0 0 9.1 1.665v30.548c0 .688.502 1.274 1.182 1.381a175.5 175.5 0 0 0 27.31 2.148c9.102 0 18.188-.715 27.26-2.147a1.399 1.399 0 0 0 1.181-1.381V1.664c0-.688-.501-1.274-1.182-1.381a174.883 174.883 0 0 0-27.259-2.148c-9.088 0-18.19.716-27.31 2.148zm-.073-.46a176.219 176.219 0 0 1 27.382-2.154c9.11 0 18.222.718 27.332 2.153A1.865 1.865 0 0 1 66.5 1.664v30.55c0 .917-.668 1.698-1.575 1.842a175.089 175.089 0 0 1-27.333 2.152c-9.127 0-18.255-.717-27.382-2.153a1.865 1.865 0 0 1-1.577-1.842V1.665c0-.918.67-1.7 1.577-1.842z"/>
            <path d="M7.95 2.615a1.399 1.399 0 0 0-1.183 1.381v30.548c0 .688.501 1.274 1.182 1.381a175.5 175.5 0 0 0 27.31 2.148c9.102 0 18.188-.715 27.26-2.147a1.399 1.399 0 0 0 1.181-1.381V3.995c0-.688-.501-1.274-1.182-1.381A174.883 174.883 0 0 0 35.258.466c-9.087 0-18.19.716-27.309 2.149zm-.073-.461A176.219 176.219 0 0 1 35.259 0c9.11 0 18.221.718 27.332 2.153a1.865 1.865 0 0 1 1.576 1.842v30.55c0 .917-.669 1.698-1.576 1.842A175.089 175.089 0 0 1 35.26 38.54c-9.127 0-18.255-.718-27.383-2.154A1.865 1.865 0 0 1 6.3 34.544V3.996c0-.918.669-1.7 1.577-1.842z"/>
            <path d="M5.616 4.946a1.399 1.399 0 0 0-1.183 1.381v30.548c0 .688.502 1.274 1.183 1.381a175.5 175.5 0 0 0 27.31 2.148c9.101 0 18.188-.715 27.26-2.147a1.399 1.399 0 0 0 1.18-1.381V6.326c0-.688-.5-1.274-1.181-1.381a174.883 174.883 0 0 0-27.26-2.148c-9.087 0-18.19.716-27.31 2.149zm-.073-.461a176.219 176.219 0 0 1 27.382-2.154c9.111 0 18.222.718 27.332 2.153a1.865 1.865 0 0 1 1.576 1.842v30.55c0 .917-.668 1.698-1.575 1.842a175.089 175.089 0 0 1-27.332 2.153c-9.128 0-18.255-.718-27.383-2.154a1.865 1.865 0 0 1-1.576-1.842V6.327c0-.918.669-1.7 1.576-1.842z"/>
            <path d="M3.283 7.277A1.399 1.399 0 0 0 2.1 8.658v30.548c0 .688.502 1.274 1.182 1.381a175.5 175.5 0 0 0 27.31 2.148c9.102 0 18.188-.715 27.26-2.147a1.399 1.399 0 0 0 1.181-1.381V8.657c0-.688-.501-1.274-1.182-1.381a174.883 174.883 0 0 0-27.259-2.148c-9.088 0-18.19.716-27.31 2.149zm-.073-.461a176.219 176.219 0 0 1 27.382-2.154c9.11 0 18.222.718 27.332 2.153A1.865 1.865 0 0 1 59.5 8.657v30.55c0 .917-.668 1.698-1.575 1.842a175.089 175.089 0 0 1-27.333 2.153c-9.127 0-18.255-.718-27.382-2.154a1.865 1.865 0 0 1-1.577-1.842V8.658c0-.918.67-1.7 1.577-1.842z"/>
        </g>
        <g fill="#FFF" mask="url(#d)">
            <path fill-rule="nonzero" d="M16.45 21.212a.816.816 0 1 0 0-1.632.816.816 0 0 0 0 1.632zm0 .933a1.75 1.75 0 1 1-.002-3.499 1.75 1.75 0 0 1 .002 3.499z"/>
            <path d="M16.567 21.445c.257 0 .466.21.466.467v7.925a.467.467 0 1 1-.933 0v-7.925c0-.258.209-.467.467-.467z"/>
            <path fill-rule="nonzero" d="M39.783 23.543a.816.816 0 1 0 .001-1.632.816.816 0 0 0 0 1.632zm0 .933a1.75 1.75 0 1 1-.001-3.499 1.75 1.75 0 0 1 .001 3.499z"/>
            <path d="M39.9 23.776c.258 0 .467.21.467.467v5.594a.467.467 0 0 1-.934 0v-5.594c0-.258.21-.467.467-.467z"/>
            <path fill-rule="nonzero" d="M21.117 16.55a.816.816 0 1 0 0-1.632.816.816 0 0 0 0 1.632zm0 .933a1.75 1.75 0 1 1-.002-3.499 1.75 1.75 0 0 1 .002 3.499z"/>
            <path d="M21.233 16.783c.258 0 .467.21.467.467v12.587a.467.467 0 1 1-.933 0V17.25c0-.258.209-.467.466-.467z"/>
            <path fill-rule="nonzero" d="M35.117 14.22a.816.816 0 1 0 0-1.633.816.816 0 0 0 0 1.632zm0 .932a1.75 1.75 0 1 1-.002-3.499 1.75 1.75 0 0 1 .002 3.499z"/>
            <path d="M35.233 14.452c.258 0 .467.21.467.467v14.918a.467.467 0 0 1-.933 0V14.919c0-.258.209-.467.466-.467z"/>
            <path fill-rule="nonzero" d="M25.783 18.881a.816.816 0 1 0 .001-1.632.816.816 0 0 0 0 1.632zm0 .933a1.75 1.75 0 1 1-.001-3.499 1.75 1.75 0 0 1 .001 3.499z"/>
            <path d="M25.9 19.114c.258 0 .467.21.467.467v10.256a.467.467 0 0 1-.934 0V19.58c0-.258.21-.467.467-.467z"/>
            <path fill-rule="nonzero" d="M30.45 9.557a.816.816 0 1 0 0-1.632.816.816 0 0 0 0 1.632zm0 .933a1.75 1.75 0 1 1-.002-3.499 1.75 1.75 0 0 1 .002 3.499z"/>
            <path d="M30.567 9.79c.257 0 .466.21.466.467v19.58a.467.467 0 1 1-.933 0v-19.58c0-.258.209-.467.467-.467z"/>
        </g>
    </g>
</svg>
